<?xml version="1.0" encoding="utf-8"?>
<svg version="1.1" x="0px" y="0px" viewBox="0 0 512 512.3672485351562" enable-background="new 0 0 512 512" xmlns="http://www.w3.org/2000/svg">
  <g>
    <path d="M0.013,369.215c0,42.813,7.281,83.873,20.671,122.121C58.9,504.711,99.992,511.99,142.771,511.99   c12.14,0,24.155-0.563,35.983-1.721L1.716,333.623C0.591,345.342,0.013,357.186,0.013,369.215z" style="fill: rgb(231, 76, 60);"/>
    <path d="M491.316,20.696C453.084,7.321,412.007,0.009,369.229,0.009c-12.155,0-24.17,0.594-35.998,1.75l177.054,176.619   c1.143-11.718,1.703-23.593,1.703-35.592C511.987,100.005,504.707,58.914,491.316,20.696z" style="fill: rgb(231, 76, 60);"/>
    <path d="M9.466,285.875l217.099,216.586c136.773-31.75,244.395-139.496,275.956-276.304L285.437,9.571   C148.678,41.29,41.058,149.036,9.466,285.875z M310.622,185.847l35.092-35.03l15.721,15.687l-35.093,34.999l19.95,19.906   l-15.731,15.687l-19.938-19.906l-38.67,38.592l20.249,20.188l-15.718,15.719l-20.249-20.219l-41.153,41.029l19.968,19.938   l-15.718,15.654l-19.969-19.904l-32.624,32.563l-15.718-15.688l32.624-32.531l-19.952-19.936l15.719-15.688l19.951,19.904   l41.14-41.03l-19.641-19.593L236.58,220.5l19.654,19.593l38.67-38.592l-19.968-19.905l15.718-15.687L310.622,185.847z" style="fill: rgb(231, 76, 60);"/>
  </g>
</svg>